<?xml version="1.0" encoding="utf-8"?>
<!-- Generator: Adobe Illustrator 12.0.1, SVG Export Plug-In  -->
<!DOCTYPE svg PUBLIC "-//W3C//DTD SVG 1.1//EN" "http://www.w3.org/Graphics/SVG/1.1/DTD/svg11.dtd" [
	<!ENTITY ns_flows "http://ns.adobe.com/Flows/1.0/">
	<!ENTITY ns_svg "http://www.w3.org/2000/svg">
	<!ENTITY ns_xlink "http://www.w3.org/1999/xlink">
]>
<svg  version="1.1" xmlns="&ns_svg;" xmlns:xlink="&ns_xlink;" xmlns:a="http://ns.adobe.com/AdobeSVGViewerExtensions/3.0/"
	 width="491" height="675" viewBox="-0.6821289 -0.9179688 491 675" enable-background="new -0.6821289 -0.9179688 491 675"
	 xml:space="preserve">
<defs>
</defs>
<linearGradient id="XMLID_21_" gradientUnits="userSpaceOnUse" x1="69.9897461" y1="298.4960938" x2="200.0113525" y2="73.2920609">
	<stop  offset="0.1460674" style="stop-color:#009EE0"/>
	<stop  offset="0.4044944" style="stop-color:#FFFFFF"/>
	<stop  offset="0.4382997" style="stop-color:#FAFDFE"/>
	<stop  offset="0.4850138" style="stop-color:#ECF7FC"/>
	<stop  offset="0.5392339" style="stop-color:#D3EDF9"/>
	<stop  offset="0.5991251" style="stop-color:#ABDDF5"/>
	<stop  offset="0.6637023" style="stop-color:#68C8EE"/>
	<stop  offset="0.7311146" style="stop-color:#00AEE5"/>
	<stop  offset="0.7752809" style="stop-color:#009EE0"/>
</linearGradient>
<circle fill="url(#XMLID_21_)" stroke="#000000" stroke-width="10" cx="134.9997559" cy="185.8935547" r="129.9997559"/>
<path d="M251.7788086,144.0019531c0,32.3994141-17.0996094,50.7001953-43.2006836,64.5
	c-7.2001953,3.9003906-17.0996094,4.7998047-21.2998047,4.7998047c-7.2001953,0-18.3007813-0.5996094-22.2001953-0.8994141
	c-8.4003906-0.6005859-13.5-0.6005859-19.8007813,0.5996094c-3.2998047,0.9003906-4.5,0.2998047-6-0.8994141
	c-3.8994141-5.4003906-3.8994141-15.3007813-3.8994141-61.8007813V88.5009766
	c0-17.1005859,0.2998047-34.8007813-0.3007813-43.5004883C134.1777344,36.300293,133.2773438,33.6000977,122.7773438,25.5
	c-2.7001953-2.7001953-2.0996094-4.5,0.2998047-6.2998047C128.1777344,16.2001953,153.6777344,0,157.578125,0
	c1.1992188,0,1.7998047,2.0996094,1.7998047,10.199707c0,12.0004883-1.5,36.0004883-1.5,92.4018555
	c0,1.1992188,2.4003906,2.3994141,3.5996094,2.0996094c18.6005859-6.9003906,35.7001953-13.2001953,38.7011719-13.5
	c9-0.2998047,22.7993164,3.5996094,32.1000977,12.9003906c12.5996094,12.2998047,19.5,27.5996094,19.5,39.5996094V144.0019531z
	 M228.9780273,156.0019531c0-9.9003906-3.9003906-22.2001953-12.6000977-31.8007813
	c-12-14.0996094-23.3994141-15.5996094-33-15.5996094c-10.5,0-20.7001953,3.8994141-23.4003906,6
	c-1.7998047,1.5-2.3994141,2.3994141-2.7001953,6.5996094c-0.2998047,4.7998047-0.8994141,13.7998047-0.8994141,40.2001953
	c0,10.2001953,2.0996094,23.7001953,9.9003906,30.6005859c6.2998047,5.7001953,15.2998047,11.1005859,23.7001953,11.1005859
	c5.3994141,0,13.2001953-1.8007813,21-8.1005859c12.5991211-10.2001953,17.9995117-21.2998047,17.9995117-38.7001953V156.0019531z"
	/>
<path d="M15.0732422,221.7021484c0-32.4003906,17.0996094-50.7001953,43.2001953-64.5009766
	c7.2001953-3.8994141,17.0996094-4.7998047,21.2998047-4.7998047c7.2001953,0,18.3007813,0.5996094,22.2001953,0.9003906
	c8.4003906,0.5996094,13.5,0.5996094,19.8007813-0.6005859c3.2998047-0.8994141,4.5-0.2998047,6,0.9003906
	c3.8994141,5.3994141,3.8994141,15.2998047,3.8994141,61.8007813v61.8007813c0,17.0996094-0.2998047,34.7998047,0.3007813,43.5
	c0.8994141,8.7001953,1.7998047,11.4003906,12.2998047,19.5c2.7001953,2.7001953,2.0996094,4.5-0.2998047,6.2998047
	c-5.1005859,3-30.6005859,19.2001953-34.5009766,19.2001953c-1.1992188,0-1.7998047-2.0996094-1.7998047-10.1992188
	c0-12.0009766,1.5-36.0009766,1.5-92.4013672c0-1.2001953-2.4003906-2.4003906-3.5996094-2.0996094
	c-18.6005859,6.8994141-35.7001953,13.1992188-38.7011719,13.5c-9,0.2998047-22.7998047-3.6005859-32.0996094-12.9003906
	c-12.6005859-12.2998047-19.5-27.6005859-19.5-39.6005859V221.7021484z M37.8730469,209.7021484
	c0,9.9003906,3.9003906,22.2001953,12.6005859,31.7998047c12,14.1005859,23.3994141,15.6005859,33,15.6005859
	c10.5,0,20.7001953-3.9003906,23.4003906-6c1.7998047-1.5,2.3994141-2.4003906,2.7001953-6.6005859
	c0.2998047-4.7998047,0.8994141-13.7998047,0.8994141-40.2001953c0-10.2001953-2.0996094-23.7001953-9.9003906-30.6005859
	c-6.2998047-5.6992188-15.2998047-11.0996094-23.7001953-11.0996094c-5.3994141,0-13.2001953,1.7998047-21,8.0996094
	c-12.5996094,10.2001953-18,21.3007813-18,38.7011719V209.7021484z"/>
<polygon fill="#009EE0" points="133.2294922,50.9350586 135.2607422,50.8725586 135.3857422,61.3725586 133.4169922,61.2788086 "/>
<polygon fill="#009EE0" points="158.4428711,52.859375 160.4013672,53.234375 160.3232422,64.3100586 158.1928711,63.859375 "/>
<polygon fill="#009EE0" points="131.484375,310.7763672 131.9013672,320.859375 133.9013672,320.859375 133.6513672,310.734375 "/>
<polygon fill="#009EE0" points="108.5678711,308.1513672 106.609375,307.6923828 105.9013672,317.7763672 108.4013672,318.3173828 
	"/>
<circle fill="#009EE0" stroke="#000000" stroke-width="10" cx="354.503418" cy="493.3857422" r="130"/>
<path d="M471.2827148,451.4951172c0,32.3984375-17.0996094,50.6992188-43.2011719,64.5
	c-7.2001953,3.9003906-17.0996094,4.7988281-21.2998047,4.7988281c-7.2001953,0-18.3007813-0.5996094-22.2001953-0.8984375
	c-8.4003906-0.6015625-13.5-0.6015625-19.8007813,0.5996094c-3.2998047,0.9003906-4.5,0.2988281-6-0.9003906
	c-3.8994141-5.4003906-3.8994141-15.3007813-3.8994141-61.8007813v-61.8007813c0-17.0996094,0.2998047-34.8007813-0.3007813-43.5
	c-0.8994141-8.7001953-1.7998047-11.4003906-12.2998047-19.5c-2.7001953-2.7011719-2.0996094-4.5,0.2998047-6.3007813
	c5.1005859-3,30.6005859-19.1992188,34.5009766-19.1992188c1.1992188,0,1.7998047,2.0996094,1.7998047,10.1992188
	c0,12-1.5,36-1.5,92.4023438c0,1.1992188,2.4003906,2.3984375,3.5996094,2.0996094
	c18.6005859-6.9003906,35.7001953-13.2011719,38.7011719-13.5c9-0.3007813,22.7998047,3.5996094,32.1005859,12.9003906
	c12.5996094,12.2988281,19.5,27.5996094,19.5,39.5996094V451.4951172z M448.4819336,463.4951172
	c0-9.9003906-3.9003906-22.2011719-12.6005859-31.8007813c-12-14.0996094-23.3994141-15.5996094-33-15.5996094
	c-10.5,0-20.7001953,3.8984375-23.4003906,6c-1.7998047,1.5-2.3994141,2.3984375-2.7001953,6.5996094
	c-0.2998047,4.7988281-0.8994141,13.7988281-0.8994141,40.1992188c0,10.2011719,2.0996094,23.7011719,9.9003906,30.6015625
	c6.2998047,5.6992188,15.2998047,11.0996094,23.7001953,11.0996094c5.3994141,0,13.2001953-1.8007813,21-8.0996094
	c12.5996094-10.2011719,18-21.3007813,18-38.7011719V463.4951172z"/>
<path d="M234.5766602,529.1943359c0-32.4003906,17.0996094-50.6992188,43.2001953-64.5
	c7.2001953-3.9003906,17.0996094-4.8007813,21.2998047-4.8007813c7.2001953,0,18.3007813,0.5996094,22.2001953,0.9003906
	c8.4003906,0.5996094,13.5,0.5996094,19.8007813-0.5996094c3.2998047-0.9003906,4.5-0.3007813,6,0.9003906
	c3.8994141,5.3984375,3.8994141,15.2988281,3.8994141,61.8007813v61.8007813c0,17.0996094-0.2998047,34.7988281,0.3007813,43.5
	c0.8994141,8.6992188,1.7998047,11.4003906,12.2998047,19.5c2.7001953,2.6992188,2.0996094,4.5-0.2998047,6.2988281
	c-5.1005859,3-30.6005859,19.2011719-34.5009766,19.2011719c-1.1992188,0-1.7998047-2.0996094-1.7998047-10.1992188
	c0-12.0019531,1.5-36.0019531,1.5-92.4023438c0-1.1992188-2.4003906-2.4003906-3.5996094-2.0996094
	c-18.6005859,6.9003906-35.7001953,13.1992188-38.7011719,13.5c-9,0.3007813-22.7998047-3.5996094-32.0996094-12.9003906
	c-12.6005859-12.2988281-19.5-27.5996094-19.5-39.5996094V529.1943359z M257.3764648,517.1943359
	c0,9.9003906,3.9003906,22.2011719,12.6005859,31.8007813c12,14.0996094,23.3994141,15.5996094,33,15.5996094
	c10.5,0,20.7001953-3.9003906,23.4003906-6c1.7998047-1.5,2.3994141-2.4003906,2.7001953-6.5996094
	c0.2998047-4.8007813,0.8994141-13.8007813,0.8994141-40.2011719c0-10.1992188-2.0996094-23.6992188-9.9003906-30.5996094
	c-6.2998047-5.6992188-15.2998047-11.0996094-23.7001953-11.0996094c-5.3994141,0-13.2001953,1.7988281-21,8.0996094
	c-12.5996094,10.1992188-18,21.3007813-18,38.7011719V517.1943359z"/>
<polygon fill="#009EE0" points="352.7329102,358.4277344 354.7641602,358.3652344 354.8891602,368.8652344 352.9204102,368.7714844 
	"/>
<polygon fill="#009EE0" points="377.9467773,360.3525391 379.9047852,360.7275391 379.8266602,371.8027344 377.6967773,371.3525391 
	"/>
<polygon fill="#009EE0" points="350.987793,618.2685547 351.4047852,628.3525391 353.4047852,628.3525391 353.1547852,618.2275391 
	"/>
<polygon fill="#009EE0" points="328.0717773,615.6435547 326.112793,615.1845703 325.4047852,625.2685547 327.9047852,625.8095703 
	"/>
<text transform="matrix(1 0 0 1 200.1582031 318.9560547)"><tspan x="0" y="0" font-family="'Tahoma'" font-size="37.9430809">v</tspan><tspan x="18.8969727" y="0" font-family="'Tahoma'" font-size="37.9430809">0</tspan><tspan x="39.4204102" y="0" font-family="'Tahoma'" font-size="37.9430809">.3</tspan></text>
</svg>
